<mxfile host="app.diagrams.net" modified="2023-06-07T14:49:50.926Z" agent="Mozilla/5.0 (Windows NT 10.0; Win64; x64) AppleWebKit/537.36 (KHTML, like Gecko) Chrome/114.0.0.0 Safari/537.36 Edg/114.0.1823.37" etag="_qiT36mitpaOnVCRBo9t" version="21.3.7" type="device">
  <diagram name="Страница 1" id="Gvc6gRv1gRSU6pR6WVLG">
    <mxGraphModel dx="673" dy="405" grid="1" gridSize="10" guides="1" tooltips="1" connect="1" arrows="1" fold="1" page="1" pageScale="1" pageWidth="827" pageHeight="1169" math="0" shadow="0">
      <root>
        <mxCell id="0" />
        <mxCell id="1" parent="0" />
        <mxCell id="YPQxcm5MDezFjK77YdLG-2" value="Статья" style="swimlane;whiteSpace=wrap;html=1;" vertex="1" parent="1">
          <mxGeometry x="120" y="50" width="120" height="260" as="geometry" />
        </mxCell>
        <mxCell id="YPQxcm5MDezFjK77YdLG-4" value="*Заголовок&amp;nbsp;" style="text;html=1;align=center;verticalAlign=middle;resizable=0;points=[];autosize=1;strokeColor=none;fillColor=none;" vertex="1" parent="YPQxcm5MDezFjK77YdLG-2">
          <mxGeometry x="-2.5" y="100" width="90" height="30" as="geometry" />
        </mxCell>
        <mxCell id="YPQxcm5MDezFjK77YdLG-3" value="ID_ статьи" style="text;html=1;align=center;verticalAlign=middle;resizable=0;points=[];autosize=1;strokeColor=none;fillColor=none;" vertex="1" parent="YPQxcm5MDezFjK77YdLG-2">
          <mxGeometry x="-0.5" y="20" width="80" height="30" as="geometry" />
        </mxCell>
        <mxCell id="YPQxcm5MDezFjK77YdLG-5" value="*Текст статьи" style="text;html=1;strokeColor=none;fillColor=none;align=center;verticalAlign=middle;whiteSpace=wrap;rounded=0;" vertex="1" parent="YPQxcm5MDezFjK77YdLG-2">
          <mxGeometry y="130" width="87.5" height="30" as="geometry" />
        </mxCell>
        <mxCell id="YPQxcm5MDezFjK77YdLG-24" value="*Дата публикации" style="text;html=1;strokeColor=none;fillColor=none;align=center;verticalAlign=middle;whiteSpace=wrap;rounded=0;" vertex="1" parent="YPQxcm5MDezFjK77YdLG-2">
          <mxGeometry x="-0.5" y="160" width="112.5" height="20" as="geometry" />
        </mxCell>
        <mxCell id="YPQxcm5MDezFjK77YdLG-33" value="ID_Автора" style="text;html=1;align=center;verticalAlign=middle;resizable=0;points=[];autosize=1;strokeColor=none;fillColor=none;" vertex="1" parent="YPQxcm5MDezFjK77YdLG-2">
          <mxGeometry x="2.5" y="50" width="80" height="30" as="geometry" />
        </mxCell>
        <mxCell id="YPQxcm5MDezFjK77YdLG-22" value="o Картинки" style="text;html=1;strokeColor=none;fillColor=none;align=center;verticalAlign=middle;whiteSpace=wrap;rounded=0;" vertex="1" parent="YPQxcm5MDezFjK77YdLG-2">
          <mxGeometry x="5.5" y="180" width="85" height="30" as="geometry" />
        </mxCell>
        <mxCell id="YPQxcm5MDezFjK77YdLG-41" value="о Кол-во просмотров статьи" style="text;html=1;strokeColor=none;fillColor=none;align=center;verticalAlign=middle;whiteSpace=wrap;rounded=0;" vertex="1" parent="YPQxcm5MDezFjK77YdLG-2">
          <mxGeometry x="2.5" y="220" width="114.5" height="30" as="geometry" />
        </mxCell>
        <mxCell id="YPQxcm5MDezFjK77YdLG-51" value="ID_Категории" style="text;html=1;strokeColor=none;fillColor=none;align=center;verticalAlign=middle;whiteSpace=wrap;rounded=0;" vertex="1" parent="YPQxcm5MDezFjK77YdLG-2">
          <mxGeometry x="18" y="80" width="60" height="30" as="geometry" />
        </mxCell>
        <mxCell id="YPQxcm5MDezFjK77YdLG-16" style="rounded=0;orthogonalLoop=1;jettySize=auto;html=1;exitX=0;exitY=0.25;exitDx=0;exitDy=0;entryX=1;entryY=0.5;entryDx=0;entryDy=0;endArrow=ERmany;endFill=0;endSize=11;" edge="1" parent="1" source="YPQxcm5MDezFjK77YdLG-11" target="YPQxcm5MDezFjK77YdLG-2">
          <mxGeometry relative="1" as="geometry" />
        </mxCell>
        <mxCell id="YPQxcm5MDezFjK77YdLG-39" style="rounded=0;orthogonalLoop=1;jettySize=auto;html=1;exitX=-0.025;exitY=0.511;exitDx=0;exitDy=0;entryX=0.75;entryY=0;entryDx=0;entryDy=0;endArrow=ERmany;endFill=0;endSize=11;exitPerimeter=0;" edge="1" parent="1" source="YPQxcm5MDezFjK77YdLG-40" target="YPQxcm5MDezFjK77YdLG-26">
          <mxGeometry relative="1" as="geometry" />
        </mxCell>
        <mxCell id="YPQxcm5MDezFjK77YdLG-11" value="Каталог" style="swimlane;whiteSpace=wrap;html=1;" vertex="1" parent="1">
          <mxGeometry x="510" y="240" width="145" height="210" as="geometry" />
        </mxCell>
        <mxCell id="YPQxcm5MDezFjK77YdLG-13" value="ID_ статьи" style="text;html=1;align=center;verticalAlign=middle;resizable=0;points=[];autosize=1;strokeColor=none;fillColor=none;" vertex="1" parent="YPQxcm5MDezFjK77YdLG-11">
          <mxGeometry y="20" width="80" height="30" as="geometry" />
        </mxCell>
        <mxCell id="YPQxcm5MDezFjK77YdLG-23" value="o Картинки статьи" style="text;html=1;align=center;verticalAlign=middle;resizable=0;points=[];autosize=1;strokeColor=none;fillColor=none;" vertex="1" parent="YPQxcm5MDezFjK77YdLG-11">
          <mxGeometry y="160" width="120" height="30" as="geometry" />
        </mxCell>
        <mxCell id="YPQxcm5MDezFjK77YdLG-36" value="ID_Автора" style="text;html=1;align=center;verticalAlign=middle;resizable=0;points=[];autosize=1;strokeColor=none;fillColor=none;" vertex="1" parent="YPQxcm5MDezFjK77YdLG-11">
          <mxGeometry y="40" width="80" height="30" as="geometry" />
        </mxCell>
        <mxCell id="YPQxcm5MDezFjK77YdLG-40" value="*Имя, Фамилия автора" style="text;html=1;align=center;verticalAlign=middle;resizable=0;points=[];autosize=1;strokeColor=none;fillColor=none;" vertex="1" parent="YPQxcm5MDezFjK77YdLG-11">
          <mxGeometry y="130" width="150" height="30" as="geometry" />
        </mxCell>
        <mxCell id="YPQxcm5MDezFjK77YdLG-12" value="*Заголовок Статьи&amp;nbsp;" style="text;html=1;align=center;verticalAlign=middle;resizable=0;points=[];autosize=1;strokeColor=none;fillColor=none;" vertex="1" parent="YPQxcm5MDezFjK77YdLG-11">
          <mxGeometry y="100" width="130" height="30" as="geometry" />
        </mxCell>
        <mxCell id="YPQxcm5MDezFjK77YdLG-54" value="ID_Категории" style="text;html=1;strokeColor=none;fillColor=none;align=center;verticalAlign=middle;whiteSpace=wrap;rounded=0;" vertex="1" parent="YPQxcm5MDezFjK77YdLG-11">
          <mxGeometry x="10" y="70" width="60" height="30" as="geometry" />
        </mxCell>
        <mxCell id="YPQxcm5MDezFjK77YdLG-28" style="rounded=0;orthogonalLoop=1;jettySize=auto;html=1;exitX=0.5;exitY=0;exitDx=0;exitDy=0;entryX=0.5;entryY=1;entryDx=0;entryDy=0;endArrow=ERmany;endFill=0;endSize=11;" edge="1" parent="1" source="YPQxcm5MDezFjK77YdLG-26" target="YPQxcm5MDezFjK77YdLG-2">
          <mxGeometry relative="1" as="geometry" />
        </mxCell>
        <mxCell id="YPQxcm5MDezFjK77YdLG-26" value="Автор статьи&amp;nbsp;" style="swimlane;whiteSpace=wrap;html=1;" vertex="1" parent="1">
          <mxGeometry x="260" y="490" width="150" height="120" as="geometry" />
        </mxCell>
        <mxCell id="YPQxcm5MDezFjK77YdLG-32" value="ID_Автора" style="text;html=1;align=center;verticalAlign=middle;resizable=0;points=[];autosize=1;strokeColor=none;fillColor=none;" vertex="1" parent="YPQxcm5MDezFjK77YdLG-26">
          <mxGeometry y="20" width="80" height="30" as="geometry" />
        </mxCell>
        <mxCell id="YPQxcm5MDezFjK77YdLG-35" value="*Имя, Фамилия автора" style="text;html=1;align=center;verticalAlign=middle;resizable=0;points=[];autosize=1;strokeColor=none;fillColor=none;" vertex="1" parent="YPQxcm5MDezFjK77YdLG-26">
          <mxGeometry x="-10" y="50" width="150" height="30" as="geometry" />
        </mxCell>
        <mxCell id="YPQxcm5MDezFjK77YdLG-34" value="о Аватар автора" style="text;html=1;align=center;verticalAlign=middle;resizable=0;points=[];autosize=1;strokeColor=none;fillColor=none;" vertex="1" parent="YPQxcm5MDezFjK77YdLG-26">
          <mxGeometry y="80" width="110" height="30" as="geometry" />
        </mxCell>
        <mxCell id="YPQxcm5MDezFjK77YdLG-48" style="rounded=0;orthogonalLoop=1;jettySize=auto;html=1;exitX=0;exitY=0.5;exitDx=0;exitDy=0;endArrow=ERmany;endFill=0;endSize=11;startArrow=ERmany;startFill=0;targetPerimeterSpacing=11;sourcePerimeterSpacing=6;" edge="1" parent="1" source="YPQxcm5MDezFjK77YdLG-43">
          <mxGeometry relative="1" as="geometry">
            <mxPoint x="240" y="140.00000000000006" as="targetPoint" />
          </mxGeometry>
        </mxCell>
        <mxCell id="YPQxcm5MDezFjK77YdLG-43" value="Категория статьи" style="swimlane;whiteSpace=wrap;html=1;" vertex="1" parent="1">
          <mxGeometry x="414" y="30" width="116" height="90" as="geometry" />
        </mxCell>
        <mxCell id="YPQxcm5MDezFjK77YdLG-47" value="ID_Категории" style="text;html=1;strokeColor=none;fillColor=none;align=center;verticalAlign=middle;whiteSpace=wrap;rounded=0;" vertex="1" parent="YPQxcm5MDezFjK77YdLG-43">
          <mxGeometry x="16" y="20" width="60" height="30" as="geometry" />
        </mxCell>
        <mxCell id="YPQxcm5MDezFjK77YdLG-52" value="*Название категории" style="text;html=1;strokeColor=none;fillColor=none;align=center;verticalAlign=middle;whiteSpace=wrap;rounded=0;" vertex="1" parent="YPQxcm5MDezFjK77YdLG-43">
          <mxGeometry x="16" y="50" width="60" height="30" as="geometry" />
        </mxCell>
      </root>
    </mxGraphModel>
  </diagram>
</mxfile>
